<?xml version="1.0" encoding="UTF-8"?>
<svg width="282px" height="318px" viewBox="0 0 282 318" version="1.1" xmlns="http://www.w3.org/2000/svg" xmlns:xlink="http://www.w3.org/1999/xlink">
    <title>mobasave</title>
    <defs>
        <polygon id="path-1" points="0 0 111.473321 0 111.473321 104.6875 0 104.6875"></polygon>
        <polygon id="path-3" points="0 317.786 281.229 317.786 281.229 0 0 0"></polygon>
    </defs>
    <g id="Page-1" stroke="none" stroke-width="1" fill="none" fill-rule="evenodd">
        <g id="mobasave">
            <polygon id="Fill-1" fill="#1A2F44" points="64.4133 219.1261 80.6673 219.1261 68.6673 229.6341 212.5603 229.6341 200.5603 219.1261 216.8153 219.1261 247.5903 246.0711 231.3353 246.0711 222.9403 238.7221 58.2863 238.7221 49.8923 246.0711 33.6383 246.0711"></polygon>
            <g id="Group-56">
                <g id="Group-4" transform="translate(81.305, 0)">
                    <mask id="mask-2" fill="white">
                        <use xlink:href="#path-1"></use>
                    </mask>
                    <g id="Clip-3"></g>
                    <path d="M11.494,77.0995 C5.038,74.6895 0,68.6185 0,60.4695 C0,55.5235 2.051,50.8755 5.575,47.5575 C3.264,34.9865 10.379,22.1155 22.597,17.6035 L24.187,17.0155 C28.114,6.9005 37.996,-0.0005 49.103,-0.0005 C56.481,-0.0005 63.469,3.0215 68.518,8.3605 C70.351,7.7215 72.31,7.3785 74.327,7.3785 C81.493,7.3785 87.694,11.3485 90.54,17.9425 C91.093,19.2245 91.493,20.5495 91.741,21.8945 C100.909,24.3415 107.91,31.2865 110.472,40.4975 C113.136,50.0785 110.41,60.2365 103.181,67.0965 L102.92,67.3435 C104.348,70.6295 105.128,74.2295 105.128,77.9595 C105.128,92.7205 93.161,104.6875 78.4,104.6875 C69.156,104.6875 60.763,99.9325 55.932,92.4445 C41.198,106.1015 15.018,98.7505 11.494,77.0995" id="Fill-2" fill="#94A2AA" mask="url(#mask-2)"></path>
                </g>
                <path d="M96.9093,75.7185 C99.7313,96.7245 127.3063,102.0945 138.2353,84.5625 C141.0563,93.7425 149.6013,100.4175 159.7053,100.4175 C172.1093,100.4175 182.1633,90.3625 182.1633,77.9595 C182.1633,68.2415 175.8553,59.6065 166.6853,56.6085 C172.5763,57.0915 177.8233,59.8485 181.5463,63.9995 C194.4213,51.7825 188.6063,29.6625 170.9413,25.7735 C170.2863,29.0575 168.4393,31.9105 165.8703,33.8625 L166.4693,33.1105 C172.6553,24.8185 167.3433,11.6475 155.6323,11.6475 C149.9223,11.6475 144.9463,15.2565 142.9913,20.4695 C143.2593,17.0035 144.7343,13.9825 147.1423,11.7525 C143.0313,7.1605 137.0573,4.2695 130.4073,4.2695 C119.7543,4.2695 110.7693,11.7345 108.5193,21.6845 C107.3273,26.9565 108.4673,33.2145 110.9853,37.9945 C110.9873,37.9965 110.9883,37.9985 110.9893,38.0015 L111.3493,38.6095 C107.2573,34.2205 104.9043,27.9785 105.3793,21.6075 C94.4613,25.6415 88.2123,37.8095 91.6663,49.2025 C87.9963,51.6085 85.5743,55.7555 85.5743,60.4695 C85.5743,72.3205 99.0163,77.8015 107.5493,70.9095 C105.0113,73.9315 101.1513,75.8185 96.9093,75.7185" id="Fill-5" fill="#FFFFFF"></path>
                <path d="M170.0687,28.5409 C178.1587,31.5399 183.9247,39.3269 183.9247,48.4589 C183.9247,53.4969 182.1697,58.1259 179.2367,61.7679 C180.0597,62.4559 180.8307,63.2029 181.5467,63.9989 C194.4217,51.7829 188.6067,29.6619 170.9407,25.7739 C170.7487,26.7379 170.4537,27.6639 170.0687,28.5409 M153.8617,13.3309 C161.8587,13.3309 168.3417,19.8139 168.3417,27.8109 C168.3417,28.5689 168.2837,29.3139 168.1717,30.0399 C171.3287,21.9259 165.9777,11.6479 155.6317,11.6479 C152.0017,11.6479 148.6667,13.1079 146.2177,15.5099 C148.4357,14.1279 151.0557,13.3309 153.8617,13.3309" id="Fill-7" fill="#E5E8EA"></path>
                <path d="M108.0423,84.5484 C105.3483,81.8754 103.3653,78.4844 102.4063,74.6874 C100.7143,75.3924 98.8523,75.7634 96.9093,75.7184 C97.6613,81.3104 100.1663,85.7934 103.6433,89.0334 C104.9993,87.4384 106.4693,85.9394 108.0423,84.5484" id="Fill-9" fill="#E5E8EA"></path>
                <path d="M107.0993,53.0173 C102.9153,53.5743 98.9663,53.6173 94.0003,51.2103 C86.7303,61.2033 91.4653,75.1153 107.4193,71.0133 C98.8793,77.7443 85.5743,72.2593 85.5743,60.4693 C85.5743,53.7903 88.0093,51.1623 90.9323,45.8773 C89.4703,35.5303 95.5193,25.2513 105.3793,21.6083 C105.1803,24.2983 105.4833,26.9633 106.2083,29.4783 C94.3013,33.3423 91.6663,49.2033 107.0993,53.0173 M128.3323,7.5423 C134.8393,7.5423 140.6613,10.4693 144.5563,15.0763 C145.2283,13.8373 146.0973,12.7213 147.1423,11.7523 C135.3103,-1.4627 113.7983,3.7893 108.9153,20.1693 C112.2183,12.7313 119.6703,7.5423 128.3323,7.5423" id="Fill-11" fill="#E5E8EA"></path>
                <path d="M182.1635,77.9598 C182.1635,68.6908 176.4255,60.4058 167.9345,57.0588 C172.6745,60.9538 175.6985,66.8618 175.6985,73.4738 C175.6985,79.2058 173.4275,84.4058 169.7375,88.2268 C171.5495,90.2568 173.1715,92.4548 174.5795,94.7858 C179.2325,90.6718 182.1635,84.6578 182.1635,77.9598" id="Fill-13" fill="#E5E8EA"></path>
                <path d="M160.8574,80.4202 C175.3644,87.0242 185.8064,100.3492 188.7014,116.0222 L191.1494,115.5742 C193.3584,122.5222 194.9314,126.9932 195.1744,134.7242 L198.7024,135.2872 L207.2794,155.5572 L215.7234,156.3752 L224.3214,178.1302 L244.0754,179.8432 L248.0724,212.7472 L140.6144,242.3192 L33.1564,212.7472 L37.1524,179.8432 L56.9064,178.1292 L65.5044,156.3752 L73.9504,155.5572 L82.5254,135.2862 L86.0574,134.7232 C86.3004,126.9922 87.8734,122.5222 90.0814,115.5742 L92.5264,116.0222 C95.4214,100.3492 105.8634,87.0242 120.3714,80.4202 L119.3794,67.9822 L115.2074,65.2472 L117.1794,42.5932 L164.0474,42.5932 L166.0214,65.2472 L161.8494,67.9822 L160.8574,80.4202 Z" id="Fill-15" fill="#1A2F44"></path>
                <path d="M134.7351,177.3522 L129.2971,177.8252 L128.5741,225.5052 L122.0091,223.6982 L122.6971,178.3972 L114.6481,179.0972 L113.3651,221.3202 L106.8231,219.5202 L108.0341,179.6702 L99.9601,180.3702 L98.2851,217.1702 L91.7631,215.3752 L93.3321,180.9462 L85.2371,181.6482 L83.3301,213.0542 L76.8251,211.2652 L78.5891,182.2262 L70.4751,182.9302 L68.4991,208.9722 L62.0081,207.1862 L63.8041,183.5092 L57.1131,184.0902 L55.8021,184.2022 L53.6061,204.8732 L47.1561,203.0992 L49.1021,184.7852 L42.4811,185.3582 L39.6871,208.3682 L140.6151,236.1442 L241.5411,208.3682 L238.7471,185.3582 L232.1251,184.7852 L234.0721,203.0992 L227.6221,204.8732 L225.4261,184.2022 L224.1161,184.0902 L217.4241,183.5092 L219.2211,207.1862 L212.7301,208.9722 L210.7521,182.9302 L202.6391,182.2262 L204.4041,211.2652 L197.8981,213.0542 L195.9911,181.6482 L187.8971,180.9462 L189.4641,215.3752 L182.9431,217.1702 L181.2671,180.3702 L173.1941,179.6702 L174.4041,219.5202 L167.8631,221.3202 L166.5811,179.0972 L158.5311,178.3972 L159.2181,223.6982 L152.6551,225.5052 L151.9311,177.8252 L146.4921,177.3522 L143.9221,177.1302 L143.9221,227.9092 L140.6151,228.8182 L137.3051,227.9092 L137.3051,177.1302 L134.7351,177.3522 Z M187.1351,124.9462 C187.1351,124.0832 187.1101,123.2272 187.0631,122.3752 C188.8311,127.9352 189.5461,133.7992 189.1251,139.7872 L194.5051,140.6462 L201.6491,157.5352 L176.0641,155.0632 C179.5151,151.0172 182.2911,146.4252 184.1851,141.3072 C186.2051,135.8512 187.1351,130.8152 187.1351,124.9462 L187.1351,124.9462 Z M92.1051,139.7872 C91.4191,129.9962 94.1671,122.5332 94.1671,122.3752 C93.4701,134.2362 97.4751,146.0182 105.1641,155.0632 L79.5781,157.5352 L86.7231,140.6462 L92.1051,139.7872 Z M218.6691,180.0302 L150.0651,174.0762 L150.0651,170.5042 C158.9301,168.6732 166.8711,164.3202 173.1091,158.2292 L211.5251,161.9512 L218.6691,180.0302 Z M62.5581,180.0302 L131.1621,174.0762 L131.1621,170.5042 C122.2981,168.6732 114.3571,164.3202 108.1201,158.2292 L69.7031,161.9512 L62.5581,180.0302 Z" id="Fill-17" fill="#CF0E11"></path>
                <path d="M159.0145,167.6799 L207.7785,171.9139 L206.4855,168.6419 L164.9195,164.6149 C163.0355,165.7709 161.0625,166.7969 159.0145,167.6799 M116.3085,164.6149 L74.7425,168.6419 L73.4505,171.9139 L122.2145,167.6799 C120.1645,166.7969 118.1925,165.7709 116.3085,164.6149" id="Fill-19" fill="#FFFFFF"></path>
                <path d="M140.6147,82.9035 C163.8337,82.9035 182.6577,101.7265 182.6577,124.9465 C182.6577,148.1675 163.8337,166.9885 140.6147,166.9885 C117.3937,166.9885 98.5707,148.1675 98.5707,124.9465 C98.5707,101.7265 117.3937,82.9035 140.6147,82.9035" id="Fill-21" fill="#CF0E11"></path>
                <path d="M140.6147,93.2937 C158.0957,93.2937 172.2677,107.4647 172.2677,124.9467 C172.2677,142.4277 158.0957,156.5987 140.6147,156.5987 C123.1327,156.5987 108.9607,142.4277 108.9607,124.9467 C108.9607,107.4647 123.1327,93.2937 140.6147,93.2937" id="Fill-23" fill="#1A2F44"></path>
                <path d="M140.6147,98.2762 C155.3447,98.2762 167.2847,110.2152 167.2847,124.9462 C167.2847,139.6762 155.3447,151.6182 140.6147,151.6182 C125.8847,151.6182 113.9427,139.6762 113.9427,124.9462 C113.9427,110.2152 125.8847,98.2762 140.6147,98.2762" id="Fill-25" fill="#FFFFFF"></path>
                <path d="M140.6147,104.8518 C151.7127,104.8518 160.7087,113.8478 160.7087,124.9458 C160.7087,136.0448 151.7127,145.0418 140.6147,145.0418 C129.5157,145.0418 120.5197,136.0448 120.5197,124.9458 C120.5197,113.8478 129.5157,104.8518 140.6147,104.8518" id="Fill-27" fill="#C10001"></path>
                <path d="M156.1447,64.6004 L154.8657,80.6544 C152.8207,79.9974 150.7147,79.4774 148.5577,79.1054 C150.6967,77.0304 152.0247,74.1284 152.0247,70.9144 C152.0247,64.6134 146.9157,59.5034 140.6147,59.5034 C134.3117,59.5034 129.2037,64.6134 129.2037,70.9144 C129.2037,74.1284 130.5327,77.0304 132.6707,79.1054 C130.5137,79.4774 128.4067,79.9974 126.3637,80.6544 L125.0837,64.6004 L121.4487,62.2184 L122.6397,48.5484 L158.5897,48.5484 L159.7787,62.2184 L156.1447,64.6004 Z" id="Fill-29" fill="#CF0E11"></path>
                <path d="M140.6147,63.7859 C144.5507,63.7859 147.7407,66.9779 147.7407,70.9139 C147.7407,74.8509 144.5507,78.0429 140.6147,78.0429 C136.6777,78.0429 133.4867,74.8509 133.4867,70.9139 C133.4867,66.9779 136.6777,63.7859 140.6147,63.7859" id="Fill-31" fill="#FFFFFF"></path>
                <path d="M140.6147,67.8593 C142.3017,67.8593 143.6697,69.2263 143.6697,70.9143 C143.6697,72.6013 142.3017,73.9703 140.6147,73.9703 C138.9257,73.9703 137.5587,72.6013 137.5587,70.9143 C137.5587,69.2263 138.9257,67.8593 140.6147,67.8593" id="Fill-33" fill="#1A2F44"></path>
                <path d="M92.079,146.0442 C93.688,146.0442 94.993,147.3492 94.993,148.9592 C94.993,150.5692 93.688,151.8752 92.079,151.8752 C90.469,151.8752 89.164,150.5692 89.164,148.9592 C89.164,147.3492 90.469,146.0442 92.079,146.0442 M189.149,146.0442 C190.759,146.0442 192.066,147.3492 192.066,148.9592 C192.066,150.5692 190.759,151.8752 189.149,151.8752 C187.539,151.8752 186.234,150.5692 186.234,148.9592 C186.234,147.3492 187.539,146.0442 189.149,146.0442" id="Fill-35" fill="#FFFFFF"></path>
                <polygon id="Fill-37" fill="#B40608" points="167.8633 221.3206 166.5803 179.0966 158.5313 178.3966 159.2183 223.6986 152.6553 225.5056 151.9313 177.8256 146.4923 177.3526 143.9223 177.1306 143.9223 227.9096 140.6143 228.8186 140.6143 236.1436 241.5413 208.3686 238.7473 185.3576 232.1253 184.7856 234.0713 203.0996 227.6223 204.8736 225.4263 184.2026 224.1153 184.0906 217.4243 183.5096 219.2203 207.1866 212.7293 208.9716 210.7523 182.9306 202.6393 182.2266 204.4033 211.2646 197.8973 213.0546 195.9913 181.6476 187.8973 180.9466 189.4643 215.3756 182.9433 217.1706 181.2673 180.3706 173.1943 179.6706 174.4043 219.5206"></polygon>
                <polygon id="Fill-39" fill="#BC0609" points="154.9539 50.9294 156.1449 64.6004 159.7789 62.2184 158.5889 48.5484 122.6389 48.5484 122.4309 50.9294"></polygon>
                <path d="M135.4211,83.2211 C156.1911,85.7791 172.2711,103.4851 172.2711,124.9461 C172.2711,146.4091 156.1911,164.1131 135.4211,166.6721 C160.5161,169.7641 182.6571,150.2331 182.6571,124.9461 C182.6571,99.6591 160.5161,80.1291 135.4211,83.2211" id="Fill-41" fill="#B40608"></path>
                <path d="M191.9075,143.4753 L197.6945,157.1533 L201.6495,157.5353 L194.5055,140.6463 L189.1255,139.7873 C189.5455,133.7993 188.8305,127.9353 187.0635,122.3753 C187.1105,123.2273 187.1355,124.0833 187.1355,124.9463 C187.1355,128.0663 186.8725,130.9513 186.3225,133.7913 C186.6665,136.6863 186.7375,139.6353 186.5285,142.6153 L191.9075,143.4753 Z M122.2145,167.6803 L101.3165,169.4953 C104.0965,170.6413 107.7555,171.9223 110.5535,172.5003 L110.5535,175.8653 L131.1625,174.0763 L131.1625,170.5033 C128.0555,169.8613 125.0605,168.9083 122.2145,167.6803 L122.2145,167.6803 Z M92.0595,139.7943 C93.9215,144.4603 96.5365,148.8343 99.8285,152.7053 L80.8455,154.5393 L79.5775,157.5353 L105.1635,155.0633 C97.4745,146.0183 93.4695,134.2363 94.1675,122.3753 C94.1675,122.5333 91.4185,129.9963 92.1045,139.7873 L92.0595,139.7943 Z M87.5105,160.2273 C89.9865,162.6453 92.7325,164.7893 95.6995,166.6123 L116.3085,164.6153 C113.3425,162.7933 110.5965,160.6493 108.1195,158.2293 L87.5105,160.2273 Z M211.5245,161.9513 L173.1085,158.2293 C170.6315,160.6493 167.8865,162.7933 164.9195,164.6153 L165.8375,164.7043 C167.4805,163.4753 169.0395,162.1393 170.5025,160.7103 L208.9195,164.4333 L214.9575,179.7093 L218.6695,180.0303 L211.5245,161.9513 Z" id="Fill-43" fill="#B40608"></path>
                <path d="M122.2141,167.6799 C120.1651,166.7969 118.1921,165.7709 116.3081,164.6149 L95.8051,166.6019 C97.1411,167.3779 99.5801,168.5269 101.6571,169.4649 L122.2141,167.6799 Z M162.7641,165.8599 L195.3211,169.0129 L196.0651,170.8959 L207.7781,171.9139 L206.4861,168.6419 L165.8381,164.7049 L164.9201,164.6149 C164.2131,165.0479 163.4951,165.4649 162.7641,165.8599 L162.7641,165.8599 Z M138.2571,64.1849 C140.3261,64.9099 141.9601,66.5619 142.6581,68.6439 C143.2781,69.2029 143.6691,70.0129 143.6691,70.9139 C143.6691,71.8149 143.2781,72.6259 142.6581,73.1859 C141.9601,75.2669 140.3261,76.9179 138.2571,77.6429 C138.9951,77.9009 139.7871,78.0429 140.6151,78.0429 C144.5511,78.0429 147.7411,74.8509 147.7411,70.9139 C147.7411,66.9779 144.5511,63.7859 140.6151,63.7859 C139.7871,63.7859 138.9951,63.9269 138.2571,64.1849 L138.2571,64.1849 Z M94.9931,148.9599 C94.9931,147.3499 93.6881,146.0439 92.0791,146.0439 C91.0451,146.0439 90.1351,146.5829 89.6181,147.3949 C90.0051,147.2049 90.4411,147.0989 90.9001,147.0989 C92.5101,147.0989 93.8161,148.4039 93.8161,150.0139 C93.8161,150.5899 93.6491,151.1269 93.3611,151.5779 C94.3291,151.1039 94.9931,150.1099 94.9931,148.9599 L94.9931,148.9599 Z M187.9711,147.0989 C189.5811,147.0989 190.8861,148.4039 190.8861,150.0139 C190.8861,150.5899 190.7201,151.1269 190.4321,151.5779 C191.4001,151.1039 192.0661,150.1099 192.0661,148.9599 C192.0661,147.3499 190.7591,146.0439 189.1491,146.0439 C188.1151,146.0439 187.2071,146.5829 186.6881,147.3949 C187.0761,147.2049 187.5111,147.0989 187.9711,147.0989 L187.9711,147.0989 Z" id="Fill-45" fill="#E5E8EA"></path>
                <path d="M138.6143,141.2738 C141.2533,141.2738 143.4933,140.7738 145.4493,139.5548 L141.5323,124.3288 C143.4933,123.2838 144.8283,121.2188 144.8283,118.8418 C144.8283,115.4098 142.0463,112.6278 138.6143,112.6278 C135.1823,112.6278 132.4003,115.4098 132.4003,118.8418 C132.4003,121.2188 133.7353,123.2838 135.6963,124.3288 L131.7793,139.5548 C133.7343,140.7738 135.9753,141.2738 138.6143,141.2738" id="Fill-47" fill="#B40608"></path>
                <path d="M140.6143,139.2738 C143.2533,139.2738 145.4933,138.7738 147.4493,137.5548 L143.5323,122.3288 C145.4933,121.2838 146.8283,119.2188 146.8283,116.8418 C146.8283,113.4098 144.0463,110.6278 140.6143,110.6278 C137.1823,110.6278 134.4003,113.4098 134.4003,116.8418 C134.4003,119.2188 135.7353,121.2838 137.6963,122.3288 L133.7793,137.5548 C135.7343,138.7738 137.9753,139.2738 140.6143,139.2738" id="Fill-49" fill="#1A2F44"></path>
                <path d="M128.5109,26.7765 C131.9929,26.7765 135.1409,28.2105 137.3979,30.5205 C134.2119,32.0455 131.7789,34.8915 130.8039,38.3465 C132.5929,35.4175 135.5619,33.2885 139.0489,32.6175 L139.0489,32.6175 C146.1039,31.2695 152.4939,36.0825 153.6679,42.5935 L117.1799,42.5935 L115.6459,60.2245 C113.1389,59.3135 110.8719,57.5695 109.2889,54.9445 C103.4279,45.2265 112.9149,32.9295 124.0679,36.8395 C122.2149,35.2175 119.8749,34.1375 117.2959,33.8455 C119.2969,29.6645 123.5659,26.7765 128.5109,26.7765 L128.5109,26.7765 Z M155.1609,42.5935 C155.2969,40.6275 154.9689,38.6265 154.1579,36.7685 C162.2729,33.0735 171.7249,38.9655 171.7249,48.0855 C171.7249,53.0965 169.0679,56.8465 165.4629,58.8505 L164.0479,42.5935 L155.1609,42.5935 Z" id="Fill-51" fill="#E5E8EA"></path>
                <path d="M157.707,5.096 L158.027,3.626 L157.919,5.118 L157.707,5.096 Z M172.538,14.164 L175.085,7.337 L173.311,15.495 C173.069,15.039 172.811,14.595 172.538,14.164 L172.538,14.164 Z M184.891,25.433 L191.441,13.437 L186.44,26.845 C185.941,26.354 185.424,25.885 184.891,25.433 L184.891,25.433 Z M193.839,39.067 L206.762,21.803 L194.856,43.608 L193.839,39.067 Z M191.945,61.058 L220.737,32.266 L188.673,75.097 C188.43,72.65 187.877,70.243 187.027,67.932 C189.023,65.866 190.669,63.546 191.945,61.058 L191.945,61.058 Z M188.815,77.747 L233.081,44.61 L189.713,87.978 L243.544,58.584 L194.445,95.34 L251.911,73.905 L198.08,103.298 L258.01,90.262 L200.543,111.696 L261.721,107.321 L201.791,120.358 L262.966,124.733 L201.791,129.108 L261.721,142.146 L202.394,137.901 L200.381,133.144 L197.459,132.677 C196.973,125.453 195.016,119.876 192.785,112.854 L190.555,113.262 C189.09,106.982 186.44,101.032 182.763,95.73 C186.754,90.562 188.844,84.318 188.815,77.747 L188.815,77.747 Z M202.675,138.565 L258.01,159.203 L206.683,148.039 L202.675,138.565 Z M208.239,151.714 L211.675,153.59 L208.919,153.324 L208.239,151.714 Z M218.7,157.427 L251.911,175.56 L221.363,164.167 L218.7,157.427 Z M59.864,164.167 L29.318,175.56 L62.528,157.427 L59.864,164.167 Z M69.553,153.59 L72.989,151.714 L72.309,153.324 L69.553,153.59 Z M74.545,148.039 L23.218,159.203 L78.553,138.565 L74.545,148.039 Z M78.833,137.901 L19.507,142.146 L79.437,129.108 L18.262,124.733 L79.437,120.358 L19.507,107.321 L80.685,111.696 L23.218,90.262 L83.148,103.298 L29.318,73.905 L86.783,95.34 L37.685,58.584 L91.515,87.978 L48.146,44.61 L80.774,69.033 C82.743,73.31 86.194,76.786 90.693,78.808 C91.946,84.839 94.95,90.189 99.519,94.267 C95.295,99.92 92.277,106.388 90.671,113.262 L88.447,112.854 C86.215,119.875 84.259,125.454 83.774,132.677 L80.846,133.144 L78.833,137.901 Z M79.185,57.238 L60.49,32.266 L80.614,52.39 C79.939,53.932 79.456,55.56 79.185,57.238 L79.185,57.238 Z M84.239,39.702 L74.465,21.803 L84.936,35.791 C84.615,37.071 84.382,38.377 84.239,39.702 L84.239,39.702 Z M92.916,21.827 L89.787,13.437 L93.875,20.926 C93.549,21.22 93.228,21.519 92.916,21.827 L92.916,21.827 Z M106.686,9.836 L106.143,7.337 L106.943,9.481 L106.686,9.836 Z" id="Fill-53" fill="#E5E8EA"></path>
                <mask id="mask-4" fill="white">
                    <use xlink:href="#path-3"></use>
                </mask>
                <g id="Clip-55"></g>
                <g id="MOBASAVE" mask="url(#mask-4)" fill="#B40608" fill-rule="nonzero">
                    <g transform="translate(0, 247.2067)">
                        <polygon id="Path" points="39.60919 47 39.60919 13.90579 30.45045 13.90579 21.48055 33.59236 12.51065 13.90579 3.3047 13.90579 3.3047 47 10.81109 47 10.81109 25.51945 18.74237 43.6953 24.21873 43.6953 32.15001 25.51945 32.19722 47"></polygon>
                        <path d="M61.93952,13.66974 C51.74216,13.66974 44.09414,20.79845 44.09414,30.42929 C44.09414,40.10734 51.74216,47.37768 61.93952,47.37768 C72.18409,47.37768 79.83211,40.06013 79.83211,30.42929 C79.83211,20.84566 72.18409,13.66974 61.93952,13.66974 Z M62.03394,20.70403 C67.13262,20.70403 71.19268,24.90572 71.19268,30.4765 C71.19268,36.04728 67.13262,40.34339 62.03394,40.34339 C56.98247,40.34339 52.68636,36.04728 52.68636,30.4765 C52.68636,24.90572 56.93526,20.70403 62.03394,20.70403 Z" id="Shape"></path>
                        <path d="M84.26985,13.953 L84.26985,47 L100.46288,47 C108.25253,47 113.16237,43.45925 113.16237,37.84126 C113.16237,33.54515 110.51861,30.28766 106.36413,29.48509 C109.85767,28.49368 112.02933,25.70829 112.02933,22.21475 C112.02933,17.16328 107.30833,13.953 99.89636,13.953 L84.26985,13.953 Z M92.62602,20.37356 L99.42426,20.37356 C101.87918,20.37356 103.43711,21.60102 103.43711,23.72547 C103.43711,25.84992 101.87918,27.1718 99.42426,27.1718 L92.62602,27.1718 L92.62602,20.37356 Z M92.62602,33.21468 L99.42426,33.21468 C102.54012,33.21468 104.47573,34.58377 104.47573,36.80264 C104.47573,39.16314 102.54012,40.53223 99.42426,40.53223 L92.62602,40.53223 L92.62602,33.21468 Z" id="Shape"></path>
                        <path d="M139.97765,40.90991 L142.33815,47 L151.30805,47 L137.3811,13.953 L128.74167,13.953 L114.48425,47 L123.12368,47 L125.53139,40.90991 L139.97765,40.90991 Z M137.52273,34.53656 L127.98631,34.53656 L132.80173,22.30917 L137.52273,34.53656 Z" id="Shape"></path>
                        <path d="M166.79293,13.57532 C158.86165,13.57532 153.62134,17.44654 153.62134,23.53663 C153.62134,35.24471 171.08904,31.75117 171.08904,37.60521 C171.08904,39.49361 169.43669,40.48502 166.79293,40.48502 C163.3466,40.48502 158.24792,38.5022 154.8488,35.52797 L151.59131,41.99574 C155.50974,45.20602 161.17494,47.28326 166.69851,47.28326 C174.06327,47.28326 179.91731,43.78972 179.91731,37.18032 C179.91731,25.23619 162.44961,28.49368 162.44961,22.78127 C162.44961,21.17613 163.91312,20.37356 166.08478,20.37356 C168.77575,20.37356 173.16628,21.78986 176.65982,23.81989 L179.82289,17.2577 C176.42377,15.03883 171.56114,13.57532 166.79293,13.57532 Z" id="Path"></path>
                        <path d="M206.16607,40.90991 L208.52657,47 L217.49647,47 L203.56952,13.953 L194.93009,13.953 L180.67267,47 L189.3121,47 L191.71981,40.90991 L206.16607,40.90991 Z M203.71115,34.53656 L194.17473,34.53656 L198.99015,22.30917 L203.71115,34.53656 Z" id="Shape"></path>
                        <polygon id="Path" points="233.64229 47 246.62504 13.953 237.98561 13.953 229.53502 38.26615 221.08443 13.953 212.11453 13.953 224.95565 47"></polygon>
                        <polygon id="Path" points="275.75361 20.5624 275.75361 13.953 249.88253 13.953 249.88253 47 276.27292 47 276.27292 40.3906 258.28591 40.3906 258.28591 33.73399 274.05405 33.73399 274.05405 27.12459 258.28591 27.12459 258.28591 20.5624"></polygon>
                    </g>
                </g>
            </g>
        </g>
    </g>
</svg>