<?xml version="1.0" encoding="UTF-8"?>
<svg width="150px" height="80px" viewBox="0 0 150 80" version="1.1" xmlns="http://www.w3.org/2000/svg" xmlns:xlink="http://www.w3.org/1999/xlink">
    <title>Fleischmann</title>
    <g id="Page-1" stroke="none" stroke-width="1" fill="none" fill-rule="evenodd">
        <g id="Fleischmann" transform="translate(0, -5)">
            <g id="Group" transform="translate(5, 30)" fill="#C40D0E" fill-rule="nonzero">
                <g transform="translate(25.7346, 6.6241)">
                    <path d="M0,15.0035486 C0,14.5729832 0.0331204164,14.1424178 0.165602082,13.5793707 L3.08019872,0.397444996 L6.32599953,0.430565413 L3.31204164,13.678732 C3.27892122,13.9105749 3.27892122,14.0099361 3.27892122,14.1424178 C3.27892122,14.5398628 3.90820913,14.7054649 4.14005205,14.7054649 C4.27253371,14.7054649 4.70309912,14.7054649 4.90182162,14.639224 L4.50437663,17.0570144 C4.10693163,17.1894961 3.14643956,17.3219778 2.38466998,17.3219778 C0.695528744,17.3219778 0,16.4277265 0,15.0035486 Z" id="Path"></path>
                    <path d="M12.7844807,4.96806246 C15.5997161,4.96806246 16.626449,6.95528744 16.626449,9.37307783 C16.626449,10.499172 16.1958836,11.691507 16.0302815,12.0558316 L9.33995742,12.0558316 C9.27371658,14.0099361 10.4329312,14.8379465 11.9895907,14.8379465 C12.7182399,14.8379465 13.5793707,14.4405015 14.1424178,14.0099361 L15.3016324,16.0634019 C14.3742607,16.7258103 12.9169624,17.2888573 11.0953395,17.2888573 C8.24698368,17.2888573 6.29287911,15.4009936 6.29287911,12.2545541 C6.25975869,7.91577951 9.67116158,4.96806246 12.7844807,4.96806246 Z M13.8774545,10.0686066 C13.9436953,9.83676366 13.9768157,9.5055595 13.9768157,9.20747575 C13.9768157,8.24698368 13.5793707,7.45209368 12.3870357,7.45209368 C11.2609416,7.45209368 10.1348474,8.34634493 9.57180033,10.0686066 L13.8774545,10.0686066 Z" id="Shape"></path>
                    <path d="M19.9384907,5.2661462 L23.1842915,5.2661462 L20.8327419,17.023894 L17.5869411,17.023894 L19.9384907,5.2661462 Z M20.4021765,1.92098415 C20.4021765,0.894251242 21.2964277,0 22.4225219,0 C23.3167731,0 24.177904,0.563047078 24.177904,1.55665957 C24.177904,2.64963331 23.2836527,3.47764372 22.1575586,3.47764372 C21.2633073,3.51076414 20.4021765,2.98083747 20.4021765,1.92098415 Z" id="Shape"></path>
                    <path d="M23.2174119,15.036669 L25.1052756,13.4800095 C25.933286,14.473622 26.7944168,14.9373078 27.6555477,14.9373078 C28.5497989,14.9373078 29.2784481,14.4405015 29.2784481,13.8112136 C29.2784481,13.1488053 28.5829193,12.8176011 27.2581027,12.0558316 C25.933286,11.294062 24.8734327,10.2673291 24.8734327,8.77691034 C24.8734327,6.55784244 26.9268985,4.93494204 29.4440502,4.93494204 C31.0669506,4.93494204 32.3586468,5.72983203 33.2860185,6.72344452 L31.5306364,8.41258576 C30.9675893,7.81641826 30.2720606,7.35273243 29.4440502,7.35273243 C28.5497989,7.35273243 27.9536314,7.84953868 27.9536314,8.47882659 C27.9536314,9.24059617 28.9472439,9.57180033 29.907736,10.101727 C31.2987935,10.8634966 32.3586468,11.7908682 32.3586468,13.4137686 C32.3586468,15.7321978 30.305181,17.2888573 27.4568252,17.2888573 C26.0326473,17.3219778 24.2110244,16.4939674 23.2174119,15.036669 Z" id="Path"></path>
                    <path d="M34.0809084,12.4532766 C34.0809084,8.37946534 37.1279868,4.96806246 41.0030755,4.96806246 C42.4934942,4.96806246 43.5533475,5.69671162 44.149515,6.42536078 L42.3610125,8.34634493 C41.8973267,7.84953868 41.4667613,7.58457535 40.804353,7.58457535 C38.9164892,7.58457535 37.3929501,9.77052283 37.3929501,12.3870357 C37.3929501,13.8112136 38.0553584,14.7054649 39.3801751,14.7054649 C40.1750651,14.7054649 40.7381121,14.3411403 41.2680388,13.9436953 L42.6259759,15.9640407 C41.7317246,16.626449 40.5393896,17.3219778 38.6846463,17.3219778 C36.0681334,17.3219778 34.0809084,15.5334753 34.0809084,12.4532766 Z" id="Path"></path>
                    <path d="M47.4615567,0.397444996 L50.7073575,0.397444996 L49.8131062,4.73621954 L49.2831796,6.65720369 L49.3825408,6.65720369 C50.4423941,5.72983203 51.6678495,4.96806246 53.0920274,4.96806246 C55.046132,4.96806246 55.8741424,6.02791578 55.8741424,7.98202035 C55.8741424,8.51194701 55.841022,9.07499409 55.6754199,9.67116158 L52.6283416,25.2377573 L49.3825408,25.2377573 L52.3302579,10.101727 C52.4296191,9.63804116 52.5289804,9.306837 52.5289804,8.97563284 C52.5289804,8.18074284 52.098415,7.75017743 51.3366454,7.75017743 C50.6079962,7.75017743 49.8793471,8.24698368 48.8526141,9.27371658 L47.329075,17.023894 L44.149515,17.023894 L47.4615567,0.397444996 Z" id="Path"></path>
                    <path d="M59.3186657,5.2661462 L61.968299,5.2661462 L61.9020582,6.85592619 L62.0014194,6.85592619 C63.1275136,5.8623137 64.4854507,5.00118287 65.8102673,5.00118287 C67.5656494,5.00118287 68.2280577,5.82919328 68.5261415,7.05464869 C69.8178377,5.82919328 71.1757748,5.00118287 72.5005914,5.00118287 C74.4215756,5.00118287 75.2827064,6.0610362 75.2827064,8.01514076 C75.2827064,8.54506742 75.2164656,9.1081145 75.0839839,9.704282 L73.6266856,17.023894 L70.3808848,17.023894 L71.7719423,10.0686066 C71.8713035,9.60492075 71.9706648,9.27371658 71.9706648,8.94251242 C71.9706648,8.14762243 71.5400994,7.71705701 70.7783298,7.71705701 C70.2484031,7.71705701 69.4866335,8.21386326 68.4599006,9.24059617 L66.9032411,16.9907736 L63.6574403,16.9907736 L65.0484978,10.0354862 C65.147859,9.57180033 65.2472203,9.24059617 65.2472203,8.909392 C65.2472203,8.11450201 64.8166548,7.6839366 64.0880057,7.6839366 C63.5249586,7.6839366 62.7300686,8.18074284 61.7364561,9.20747575 L60.212917,16.9576532 L56.9671162,16.9576532 L59.3186657,5.2661462 Z" id="Path"></path>
                    <path d="M76.9056068,12.9832032 C76.9056068,8.51194701 79.9526851,4.96806246 83.1984859,4.96806246 C84.2583392,4.96806246 85.2850722,5.56422995 85.748758,6.52472203 L85.8149988,6.52472203 L86.3118051,5.2661462 L88.928318,5.2661462 L86.5767684,17.023894 L83.9271351,17.023894 L83.9933759,15.5003549 L83.9271351,15.5003549 C82.8672818,16.626449 81.4762243,17.3219778 80.2507689,17.3219778 C78.1641826,17.3219778 76.9056068,15.7653182 76.9056068,12.9832032 Z M84.158978,12.9169624 L84.9869884,8.74378992 C84.5895434,7.94889993 83.9602555,7.61769577 83.3972084,7.61769577 C81.774308,7.61769577 80.2507689,9.77052283 80.2507689,12.5857582 C80.2507689,14.0430565 80.7806955,14.6723445 81.6418264,14.6723445 C82.4367163,14.6723445 83.3972084,14.241779 84.158978,12.9169624 Z" id="Shape"></path>
                    <path d="M91.8429146,5.2661462 L94.4925479,5.2661462 L94.4263071,6.85592619 L94.5256683,6.85592619 C95.6848829,5.8623137 97.0096996,5.00118287 98.5001183,5.00118287 C100.454223,5.00118287 101.282233,6.0610362 101.282233,8.01514076 C101.282233,8.54506742 101.215992,9.1081145 101.083511,9.704282 L99.6262124,17.0570144 L96.3804116,17.0570144 L97.7714691,10.101727 C97.8708304,9.63804116 97.9701916,9.306837 97.9701916,8.97563284 C97.9701916,8.18074284 97.5396262,7.75017743 96.7778566,7.75017743 C96.0492075,7.75017743 95.3205583,8.24698368 94.2938254,9.27371658 L92.7702863,17.023894 L89.5244855,17.023894 L91.8429146,5.2661462 Z" id="Path"></path>
                    <path d="M104.826118,5.2661462 L107.475751,5.2661462 L107.40951,6.85592619 L107.508872,6.85592619 C108.668086,5.8623137 109.992903,5.00118287 111.483322,5.00118287 C113.437426,5.00118287 114.265436,6.0610362 114.265436,8.01514076 C114.265436,8.54506742 114.199196,9.1081145 114.066714,9.704282 L112.609416,17.0570144 L109.363615,17.0570144 L110.754672,10.101727 C110.854034,9.63804116 110.953395,9.306837 110.953395,8.97563284 C110.953395,8.18074284 110.522829,7.75017743 109.76106,7.75017743 C109.032411,7.75017743 108.303762,8.24698368 107.277029,9.27371658 L105.753489,17.023894 L102.507689,17.023894 L104.826118,5.2661462 Z" id="Path"></path>
                </g>
                <g id="Path">
                    <polygon points="16.8582919 1.55665957 123.406671 1.92098415 124.632127 2.94168391e-16 134.535131 1.98722498 133.60776 5.16678495 21.6607523 5.13366454 20.5677786 10.7641353 25.5027206 10.8634966 24.740951 14.1092974 19.9384907 14.076177 18.0506269 23.5817365 11.3603028 23.6479773 12.7182399 20.3690561 14.9704282 20.3359357 17.7525432 5.03430329 0 5.0674237 0.662408327 1.4241779"></polygon>
                    <path d="M2.91459664,4.57061746 C2.91459664,4.57061746 1.39105749,4.20629288 3.70948663,4.83558079 C5.63047078,5.10054412 8.909392,5.36550745 10.8634966,6.95528744 C12.6851195,8.64442867 13.6124911,9.90300449 14.4073811,12.0227111 C15.434114,14.7385853 15.5003549,17.7525432 15.3347528,18.3818311 C15.2022711,19.011119 16.8582919,15.6990774 16.8582919,15.6990774 C16.8582919,15.6990774 16.5602082,13.678732 15.8977999,12.0558316 C15.1360303,10.2342087 14.2086586,8.61130826 12.9169624,7.2864916 C12.088952,6.32599953 10.6647741,5.16678495 9.57180033,4.70309912 C7.45209368,3.87508872 2.91459664,4.57061746 2.91459664,4.57061746 Z"></path>
                </g>
                <path d="M72.5337119,27.4237048 C72.5337119,27.4237048 92.1078779,26.1320085 100.487343,26.2644902 C111.185238,26.4300923 126.155666,27.523066 126.155666,27.523066 L124.234682,30.4707831 C124.234682,30.4707831 117.941803,28.0198722 100.454223,27.8873906 C85.0201088,27.7880293 83.4634493,28.6491602 71.9044239,29.8083747 L72.5337119,27.4237048 Z" id="Path"></path>
            </g>
            <rect id="Rectangle" x="0" y="5" width="150" height="80"></rect>
        </g>
    </g>
</svg>