<?xml version="1.0" encoding="UTF-8"?>
<svg width="150px" height="80px" viewBox="0 0 150 80" version="1.1" xmlns="http://www.w3.org/2000/svg" xmlns:xlink="http://www.w3.org/1999/xlink">
    <title>Märklin</title>
    <g id="Page-1" stroke="none" stroke-width="1" fill="none" fill-rule="evenodd">
        <g id="Märklin" transform="translate(0, -5)">
            <rect id="Rectangle" x="0" y="5" width="150" height="80"></rect>
            <g id="Group" transform="translate(5, 30)" fill="#E60005" fill-rule="nonzero">
                <path d="M26.7646726,8.05384679 C24.2146252,8.05384679 22.0211769,9.0571207 20.4751497,11.0965635 C18.6749395,8.9038647 16.3648678,7.64715727 13.458218,7.90134019 C11.2139364,8.10543278 9.26046704,9.36288961 7.90059078,11.0965635 L7.90059078,8.64968178 L0,8.64968178 L0,30.3135101 L7.90059078,30.3135101 L7.90059078,18.0970492 C7.90059078,16.4829901 8.73341336,14.98705 10.5194195,14.98705 C12.3016881,14.98705 12.9311612,16.5338266 12.9311612,18.0970492 L12.9311612,30.3135101 L21.1046259,30.3135101 L21.1046259,18.5553247 C21.1046259,16.9076243 21.5120648,14.9534087 23.5672073,14.9534087 C25.5894517,14.9534087 26.0843598,16.6183045 26.0843598,18.3175877 L26.0843598,30.3135101 L34.341556,30.3135101 L34.341556,14.9362134 C34.341556,10.603148 30.8562635,8.05384679 26.7646726,8.05384679 Z M49.938645,22.3785287 C49.938645,24.0778151 48.7492201,25.3868548 46.9998465,25.3868548 C45.6250168,25.3868548 44.3481228,24.4007762 44.3481228,22.9564189 C44.3481228,21.0702353 46.3053297,20.7816648 47.7818293,20.7816648 L49.938645,20.7816648 L49.938645,22.3785287 Z M46.5924044,7.98656428 C42.2600884,7.98656428 36.3309085,9.24402111 36.3309085,14.6984795 C36.3309085,15.0214406 36.3638004,15.3436523 36.3966954,15.6673628 L44.6060432,15.6673628 C44.7226698,13.9680764 45.4717608,12.6934274 47.3414954,12.6934274 C48.8187445,12.6934274 49.938645,13.611474 49.938645,15.1231138 L49.938645,16.4314041 L43.9586254,16.4314041 C39.5066946,16.4314041 35.7343241,18.5044882 35.7343241,23.5006711 C35.7343241,27.9526019 39.3721265,30.8577591 43.6715475,30.8577591 C45.9995607,30.8577591 48.1563764,30.0929684 49.938645,28.6321653 L49.938645,30.3135101 L57.8938099,30.3135101 L57.8938099,15.6673628 C57.8938099,9.02273319 51.9287438,7.98656428 46.5924044,7.98656428 Z M53.3402029,0 L42.5987492,0 L33.8645895,6.96684444 L44.6718332,6.96684444 L53.3402029,0 Z M57.144719,6.96684444 L65.8459836,0 L55.052947,0 L46.3561662,6.96684444 L57.144719,6.96684444 Z M68.2390374,11.0965635 L68.2390374,8.64968178 L60.1709866,8.64968178 L60.1709866,30.3135101 L68.2390374,30.3135101 L68.2390374,20.7816648 C68.2390374,17.7232516 70.4511735,16.6183045 73.2516663,16.6183045 C73.7974109,16.6183045 74.3244678,16.6354998 74.8522708,16.6526951 L74.8522708,8.24149345 C74.3244678,8.17346469 73.7794694,8.10543278 73.2516663,8.10543278 C71.0290638,8.10543278 69.4792989,9.39653086 68.2390374,11.0965635 Z M97.1612719,8.64968178 L87.6122313,8.64968178 L83.6185761,14.8853768 L83.6185761,0 L75.5138927,0 L75.5138927,30.3135101 L83.6185761,30.3135101 L83.6185761,22.2088236 L88.0196734,30.3135101 L97.502924,30.3135101 L90.6534524,18.8110033 L97.1612719,8.64968178 Z M97.7212206,30.3135101 L105.691339,30.3135101 L105.691339,0.136063825 L97.7212206,0.136063825 L97.7212206,30.3135101 Z M107.851889,30.3135101 L115.734538,30.3135101 L115.734538,8.64893553 L107.851889,8.64893553 L107.851889,30.3135101 Z M115.733792,0 L106.778341,6.96684444 L117.057782,6.96684444 L125.776991,0 L115.733792,0 Z M138.112321,10.4842826 C136.685908,8.93750595 134.627028,8.1226281 132.538994,8.1226281 C129.93811,8.1226281 127.545056,9.26121644 126.03192,11.3514927 L126.03192,8.64968178 L118.127592,8.64968178 L118.127592,30.3135101 L126.03192,30.3135101 L126.03192,18.7429714 C126.03192,16.6870826 126.712233,14.9362134 129.054451,14.9362134 C131.298732,14.9362134 131.928208,16.5338266 131.928208,18.4536516 L131.928208,30.3135101 L140,30.3135101 L140,16.0067698 C140,13.9164936 139.58882,12.0647005 138.112321,10.4842826" id="maerklin"></path>
            </g>
        </g>
    </g>
</svg>