<?xml version="1.0" encoding="UTF-8"?>
<svg width="150px" height="80px" viewBox="0 0 150 80" version="1.1" xmlns="http://www.w3.org/2000/svg" xmlns:xlink="http://www.w3.org/1999/xlink">
    <title>nme</title>
    <defs>
        <polygon id="path-1" points="0 0 33.3147129 0 33.3147129 36.7913412 0 36.7913412"></polygon>
        <polygon id="path-3" points="0 0 55.3853 0 55.3853 36.7913412 0 36.7913412"></polygon>
        <polygon id="path-5" points="0 0 31.6054466 0 31.6054466 37.5143361 0 37.5143361"></polygon>
    </defs>
    <g id="Page-1" stroke="none" stroke-width="1" fill="none" fill-rule="evenodd">
        <g id="nme" transform="translate(0, -7)">
            <rect id="Rectangle" x="0" y="7" width="150" height="80"></rect>
            <g id="Group-10" transform="translate(10, 28)">
                <g id="Group-3">
                    <mask id="mask-2" fill="white">
                        <use xlink:href="#path-1"></use>
                    </mask>
                    <g id="path-1"></g>
                    <path d="M33.3147129,36.7913412 L22.1083328,36.7913412 L22.1083328,12.9746037 C22.1083328,11.239941 21.1966913,10.3726097 19.3734082,10.3726097 C17.2461079,10.3726097 14.5234917,11.239941 11.2063802,12.9746037 L11.2063802,36.7913412 L0,36.7913412 L0,0.758935419 L8.3192418,0.758935419 L9.49674459,3.4696535 C14.5362103,1.15649646 19.5633677,-8.20559432e-05 24.5778064,-8.20559432e-05 C30.3766999,-8.20559432e-05 33.2888653,3.85531644 33.3147129,11.5648826 L33.3147129,36.7913412 Z" id="Fill-1" fill="#667BA1" fill-rule="nonzero" mask="url(#mask-2)"></path>
                </g>
                <g id="Group-6" transform="translate(39.1115, 0)">
                    <mask id="mask-4" fill="white">
                        <use xlink:href="#path-3"></use>
                    </mask>
                    <g id="path-3"></g>
                    <path d="M33.3147129,36.7913412 L22.1083328,36.7913412 L22.1083328,12.9746037 C22.1083328,11.239941 21.1966913,10.3726097 19.3734082,10.3726097 C17.2461079,10.3726097 14.5234917,11.239941 11.2063802,12.9746037 L11.2063802,36.7913412 L0,36.7913412 L0,0.758935419 L8.3192418,0.758935419 L9.49674459,3.4696535 C14.5358001,1.15649646 19.5633677,-8.20559432e-05 24.5778064,-8.20559432e-05 C27.7935788,-8.20559432e-05 30.1108386,1.15649646 31.5291756,3.4696535 C36.5177667,1.15649646 41.5699511,-8.20559432e-05 46.6861392,-8.20559432e-05 C52.4850327,-8.20559432e-05 55.3853,3.85531644 55.3853,11.5648826 L55.3853,36.7913412 L44.1789198,36.7913412 L44.1789198,12.9746037 C44.1789198,11.239941 43.2795867,10.3726097 41.481741,10.3726097 C39.3544406,10.3726097 36.6318245,11.239941 33.3147129,12.9746037 L33.3147129,36.7913412 Z" id="Fill-4" fill="#000000" fill-rule="nonzero" mask="url(#mask-4)"></path>
                </g>
                <g id="Group-9" transform="translate(98.3946, 0)">
                    <mask id="mask-6" fill="white">
                        <use xlink:href="#path-5"></use>
                    </mask>
                    <g id="path-5"></g>
                    <path d="M31.6054876,22.5161508 L11.2059699,22.5161508 L11.2059699,23.5221567 C11.2059699,25.5345787 11.7003569,26.912298 12.6870797,27.654494 C13.6754435,28.3971003 15.4605705,28.7679931 18.0436916,28.7679931 C22.1571561,28.7679931 26.0047592,28.2535024 29.5840395,27.22329 L31.2235172,35.227437 C26.8060355,36.7524467 22.0451497,37.5143361 16.9416803,37.5143361 C5.64667973,37.5143361 0,32.6357 0,22.8767867 L0,14.4562058 C0,4.84294177 5.42594925,0.024616783 16.2786683,0 C19.2946345,0 21.8560108,0.397561045 23.9603354,1.19268313 C26.0646601,1.98780522 27.6503912,3.12633144 28.7138362,4.60785149 C29.7789224,6.08978183 30.526452,7.65622978 30.957656,9.30596452 C31.38886,10.9569301 31.6054876,12.8425757 31.6054876,14.962491 L31.6054876,22.5161508 Z M21.0059112,14.3839966 L21.0059112,12.8758083 C21.0059112,11.4960376 20.6838416,10.4083861 20.0376511,9.61326403 C19.3926913,8.81855222 18.1573391,8.42099117 16.3340561,8.42099117 C12.9160157,8.42099117 11.2059699,9.90579347 11.2059699,12.8758083 L11.2059699,14.3839966 L21.0059112,14.3839966 Z" id="Fill-7" fill="#000000" fill-rule="nonzero" mask="url(#mask-6)"></path>
                </g>
            </g>
        </g>
    </g>
</svg>