<?xml version="1.0" encoding="UTF-8"?>
<svg width="150px" height="80px" viewBox="0 0 150 80" version="1.1" xmlns="http://www.w3.org/2000/svg" xmlns:xlink="http://www.w3.org/1999/xlink">
    <title>PIKO</title>
    <g id="Page-1" stroke="none" stroke-width="1" fill="none" fill-rule="evenodd">
        <g id="PIKO" transform="translate(0, -5)">
            <rect id="Rectangle" x="0" y="5" width="150" height="80"></rect>
            <g id="Group" transform="translate(5, 30)" fill="#ED1C24" fill-rule="nonzero">
                <path d="M25.0830072,15.9936198 L9.69721732,15.9815773 L9.72581824,21.4925231 L25.0830072,21.4925231 C25.717496,21.4925231 26.132962,20.9709326 26.132962,20.4425682 C26.132962,20.1023678 26.1337147,17.0360481 26.1337147,17.0360481 C26.1337147,16.4241389 25.6264247,15.9936198 25.0830072,15.9936198 M30.408047,29.8003378 L3.55271368e-15,29.7935639 L3.55271368e-15,0.0034473 L9.72581824,0.0034473 L9.72581824,7.53452123 L30.408047,7.53301592 C33.9380027,7.53301592 37.195497,10.3035419 37.195497,14.3317558 L37.195497,23.0256829 C37.195497,26.3486583 34.5085158,29.8003378 30.408047,29.8003378" id="path458" transform="translate(18.5977, 14.9019) scale(-1, 1) rotate(-180) translate(-18.5977, -14.9019)"></path>
                <polygon id="path480" transform="translate(48.3989, 14.8993) scale(-1, 1) rotate(-180) translate(-48.3989, -14.8993)" points="43.6135435 29.7946862 53.1843147 29.7946862 53.1843147 0.003817 43.6135435 0.003817"></polygon>
                <path d="M130.208701,9.93738732 C130.208701,9.52417929 130.091286,9.174947 129.909144,8.88065858 C129.515505,8.13477668 128.774891,7.5981331 127.896542,7.50931971 C127.856651,7.49802988 127.82805,7.49940913 127.82805,7.49940913 L110.218163,7.49940913 C110.218163,7.49940913 110.204615,7.50329847 110.182035,7.50931971 C109.243473,7.57856405 108.446411,8.14907714 108.05503,8.95441885 C107.894714,9.2329015 107.793106,9.5580488 107.793106,9.93738732 L107.793106,19.7896517 C107.793106,19.9454515 107.811922,20.0922194 107.842781,20.230708 C107.843534,20.2397399 107.857834,20.2946838 107.86235,20.3135002 C108.115995,21.3920559 109.043267,22.2086875 110.177519,22.2937376 C110.20311,22.3012641 110.218163,22.3057801 110.218163,22.3057801 L127.82805,22.3057801 C127.82805,22.3057801 127.849125,22.3042748 127.879231,22.2952429 C128.941981,22.1928817 129.812804,21.4417312 130.101824,20.4444623 C130.170315,20.2450085 130.208701,20.0267383 130.208701,19.7896517 L130.208701,9.93738732 Z M131.20898,29.7932 L106.73713,29.7661044 C101.813255,29.7661044 97.9461098,25.7153109 97.9461098,20.9871271 L97.9461098,8.79937175 C97.9461098,4.14344298 101.69283,0.0045887348 106.73713,0.0045887348 L131.20898,7.28e-05 C136.284891,7.28e-05 140,4.1140894 140,8.79937175 L140,21.0097068 C140,26.0773383 135.861898,29.7932 131.20898,29.7932" id="path502" transform="translate(118.9731, 14.8966) scale(-1, 1) rotate(-180) translate(-118.9731, -14.8966)"></path>
                <polygon id="path526" transform="translate(78.1375, 14.9018) scale(-1, 1) rotate(-180) translate(-78.1375, -14.9018)" points="94.0783622 29.7950198 82.2345706 29.7995357 71.2713862 18.856673 70.3892736 18.856673 70.3892736 29.7950198 60.8192551 29.7950198 60.8192551 0.0041505 70.3892736 0.0041505 70.3892736 12.1068558 70.3900262 12.1068558 82.478431 0.0041505 95.4557223 0.0041505 79.8795106 15.5976734"></polygon>
            </g>
        </g>
    </g>
</svg>