<?xml version="1.0" encoding="UTF-8"?>
<svg width="150px" height="80px" viewBox="0 0 150 80" version="1.1" xmlns="http://www.w3.org/2000/svg" xmlns:xlink="http://www.w3.org/1999/xlink">
    <title>roco</title>
    <g id="Page-1" stroke="none" stroke-width="1" fill="none" fill-rule="evenodd">
        <g id="roco">
            <rect id="Rectangle" x="0" y="0" width="150" height="80"></rect>
            <path d="M111.192958,32.6702604 C110.280022,32.2590133 108.925116,32.2295846 108.231763,32.9523663 C107.57118,33.6467973 107.316455,34.5918573 107.539164,35.538642 C107.791626,37.5851761 109.807114,39.4127736 111.635898,40.1374957 C111.95293,40.2005572 112.895403,40.7044023 113.525586,40.2958501 L115.036044,38.7193128 C115.352429,36.0720237 113.398601,33.8664884 111.192958,32.6702604 Z M59.9018663,37.9633295 C59.3972665,35.2218254 57.7279156,32.0705834 54.7660737,31.2844168 C54.1988436,31.063971 53.5688755,31.188477 53.0339847,31.3778771 C51.4586331,32.0382441 51.4266173,34.5918573 51.7414936,36.3558543 C52.1826006,38.6886983 54.1348119,40.9882329 56.4987016,41.4931561 C57.4125004,40.515649 58.483899,39.8546352 59.6810971,39.6028205 C60.0901884,39.0975739 59.9018663,37.9633295 59.9018663,37.9633295 L59.9018663,37.9633295 Z M17.9351438,38.8451124 C17.3368682,39.035806 17.7375512,39.7589111 17.8094521,40.233112 C18.5971278,42.4703397 19.1646812,44.80092 19.9823247,47.0383633 C20.110388,47.2595636 20.2988179,47.7944544 20.7402484,47.7944544 C23.7009046,47.9845013 26.914238,48.3938081 29.6559576,47.4799015 C30.1605573,47.2908249 30.3476937,46.5847517 30.3476937,46.4077484 C30.5380639,44.140553 28.458436,42.8792153 26.8841625,41.6505403 C24.1733807,40.0430651 21.1488006,39.2246671 17.9351438,38.8451124 L17.9351438,38.8451124 Z M144.683892,44.391721 C143.959278,45.5576579 142.604696,45.8417041 141.283099,45.9028252 C136.649535,45.6202882 132.051005,45.2427816 127.51338,44.7698743 C124.139428,44.7064894 120.236731,44.1082137 118.124224,47.0383633 C116.265797,47.1641629 115.257352,45.5259654 113.901799,44.2972904 L111.413835,44.7698743 C105.082461,45.6202882 99.536607,41.8706626 96.5759508,36.5772702 C93.454353,32.8896282 89.6110515,29.3317742 84.6324276,29.3317742 C83.0881217,29.4384937 81.419741,30.0225401 80.3176201,31.5986462 C79.3722367,32.8596605 79.1821899,34.8436721 79.7180509,36.3558543 C80.4436353,38.7193128 82.8673526,41.0511866 85.2336138,41.6505403 C85.5163664,41.2093255 85.358012,40.6113732 85.3900279,40.0754044 C85.6101502,39.0031434 86.7779197,37.9956687 87.8143919,37.8064842 C90.1793595,37.3340081 92.3829545,38.342453 93.9282305,40.0754044 C94.6528448,40.9882329 94.4954606,42.3742922 94.0852914,43.3831683 C93.171277,44.9273664 91.4382179,45.5259654 89.7685436,45.7464112 C88.234694,45.9208274 82.5842765,46.061503 79.2765126,45.210119 C74.4889057,44.2649512 68.09253,42.8792153 63.9338133,46.1242411 C63.3675534,46.5961783 63.4610138,47.3215471 63.0201223,47.8570847 C62.6739848,47.8255001 62.2644624,47.9196072 61.9503407,47.7944544 C60.1852657,47.0700557 58.483899,45.998226 57.1289932,44.4546747 C54.2614739,44.7064894 50.702003,45.336781 48.117991,44.2339055 C44.0852894,42.8164772 41.1557867,38.8137433 40.3998033,34.7815807 C40.1463716,33.3946591 40.3677875,31.8207089 39.6431732,30.623403 C38.5079586,29.7066937 36.4908532,29.5741028 35.4851032,29.6455725 C31.8263509,29.909784 30.6010176,33.1418741 28.5221443,35.3175495 C28.5221443,35.3469782 27.355345,36.4511472 28.3011596,36.9565015 C31.5767999,38.0267143 34.9180888,39.1920045 37.6903151,41.2727103 C40.462757,43.8864744 42.7310304,47.1324704 42.0685074,51.1025417 C41.5968937,52.9938475 40.0781358,54.2074309 38.1661329,54.7580601 C37.1615688,55.0478196 36.399441,55.2000296 36.0829477,55.2000296 C35.7672091,55.2000296 28.1433442,55.2000296 28.1433442,55.2000296 C22.8818598,55.2620131 17.4636379,54.7574133 12.2010755,55.0409206 C10.8162021,55.1676903 10.0905098,56.9008573 8.64225143,56.870135 C6.53039212,55.4824588 4.79733296,53.3092628 5.01918006,50.6616503 C5.90020839,47.2285179 9.80678699,47.8570847 12.5792289,47.4172712 C12.9573823,47.2595636 12.8278098,46.6445793 12.799998,46.5664262 C11.3507695,41.3671409 6.46711504,29.2991116 6.53039212,28.0393909 C7.06636091,27.282114 11.0363244,24.6984254 12.4221681,24.791778 C13.0204438,27.9434512 14.5016881,30.7495259 15.5405319,33.7100744 C15.5405319,33.7100744 15.8876396,34.8124108 16.4235006,34.9393962 C19.3537579,31.5986462 21.7480465,26.3682075 26.4109318,25.0125471 C31.6720928,23.6271346 37.1586582,25.6059719 41.2853592,28.348015 C43.014861,26.6837306 44.9363501,25.5501329 47.1418853,25.1085946 C51.773186,24.791778 56.1839332,25.5501329 59.7757433,28.0393909 C63.6823219,30.2446028 65.9819643,34.4034274 65.3521039,39.0031434 L65.7296105,39.3814046 C67.7777616,39.5070964 69.7306197,40.0754044 71.7153858,40.0754044 L71.7153858,39.7589111 L70.1090964,37.429301 C68.5340683,34.7815807 67.5886849,30.6541252 69.7306197,27.9743891 C71.6846635,25.3296871 74.6495239,24.1320578 77.9862853,24.3518567 C83.5430268,24.7205239 88.5399763,26.1168239 92.9505079,29.3937578 C93.1839971,29.5254862 94.7152595,30.4320625 95.5982282,29.9281096 C95.9450125,28.9212817 96.6053795,28.0393909 97.3303172,27.2187292 C101.333267,23.343304 108.011748,23.4070123 112.988755,25.1085946 C117.807731,27.0296525 121.619987,32.0401845 121.464004,37.3340081 C122.250925,38.4362368 123.405975,37.8372065 124.549598,37.8683599 C129.592038,38.0080654 133.720032,39.6652352 138.696716,39.539759 C140.08202,39.0975739 139.737823,37.5851761 140.430422,36.6723475 C141.815726,36.7049024 142.919141,37.931637 143.705523,38.9401897 C144.651877,40.4849268 145.471568,42.4703397 144.683892,44.391721" id="path218" fill="#F25C19" fill-rule="nonzero" transform="translate(75, 40.4353) scale(-1, 1) rotate(-180) translate(-75, -40.4353)"></path>
        </g>
    </g>
</svg>